<svg width="48" height="48" viewBox="0 0 48 48" fill="none" xmlns="http://www.w3.org/2000/svg">
<!-- <rect x="0.5" y="0.5" width="47" height="47" rx="3.5" stroke="#AEAEAE"/> -->
<path d="M31.0993 11.3857C31.5346 12.505 33.958 20.9021 28.7543 23.3891L18.0998 22.7769C12.8755 20.8256 15.7963 12.505 16.2316 11.3857C16.3669 11.0022 16.6211 10.672 16.9571 10.443C17.2931 10.214 17.6935 10.0983 18.0998 10.1127C18.6329 9.13956 19.415 8.32556 20.3661 7.754C21.3171 7.18245 22.4029 6.87386 23.5124 6.85983C27.5463 6.76145 30.5104 9.70551 30.8975 10.9883L30.8988 10.9944C30.9782 11.118 31.0453 11.2491 31.0993 11.3857Z" fill="#212121"/>
<path d="M26.1141 25.9868V27.7019L35.2236 30.7156C35.7619 30.8938 36.2217 31.2532 36.5246 31.7326C36.8275 32.2119 36.9546 32.7816 36.8842 33.3442L35.9766 40.6065C35.9581 40.7546 35.8861 40.8908 35.7743 40.9896C35.6624 41.0883 35.5183 41.1428 35.3691 41.1428H11.9618C11.8126 41.1428 11.6685 41.0883 11.5566 40.9896C11.4448 40.8908 11.3728 40.7546 11.3543 40.6065L10.4467 33.3459C10.3765 32.7829 10.5039 32.213 10.8071 31.7336C11.1104 31.2541 11.5707 30.8948 12.1095 30.7171L21.2001 27.7185L21.2165 25.9868H26.1141Z" fill="#FFAB91"/>
<path d="M35.2236 30.7156L28.4264 28.4668L28.5691 32.2598L23.6654 33.9801L18.7617 32.2598L18.904 28.4756L12.1096 30.7171C11.5707 30.8948 11.1103 31.2542 10.807 31.7337C10.5037 32.2133 10.3764 32.7833 10.4468 33.3463L11.3544 40.607C11.3729 40.755 11.4448 40.8913 11.5567 40.99C11.6685 41.0888 11.8126 41.1433 11.9619 41.1433H35.3689C35.5181 41.1433 35.6622 41.0888 35.774 40.99C35.8859 40.8913 35.9578 40.755 35.9763 40.607L36.8841 33.3447C36.9546 32.782 36.8275 32.2122 36.5247 31.7327C36.2219 31.2533 35.762 30.8938 35.2236 30.7156V30.7156Z" fill="#384B91"/>
<path d="M23.6655 33.1175L23.0533 30.5805L20.6045 29.3892L23.6655 33.1175Z" fill="#697F87"/>
<path d="M23.6655 33.1175L24.2777 30.5805L26.7265 29.3892L23.6655 33.1175Z" fill="#697F87"/>
<path d="M28.3064 36.0484C29.0172 33.101 28.3973 28.9482 28.3153 28.4301L28.1451 28.3738L27.7926 28.2571L27.6288 28.2195L23.6653 33.1171L19.7017 28.2195L19.6312 28.2356L19.0827 28.4166L19.0138 28.4393C18.9276 28.9854 18.3162 33.1132 19.0241 36.0484C19.5039 37.97 20.488 39.7287 21.8748 41.1428H25.4558C26.8425 39.7287 27.8266 37.97 28.3064 36.0484V36.0484Z" fill="#C6DCE8"/>
<path d="M31.5871 19.1043C31.586 18.4618 31.3326 17.8455 30.8814 17.3882C30.4302 16.9308 29.8174 16.669 29.1751 16.6592V16.6555H27.9507V21.5531H29.1751V21.5493C29.8174 21.5395 30.4302 21.2777 30.8814 20.8204C31.3326 20.363 31.586 19.7467 31.5871 19.1043V19.1043Z" fill="#F99F84"/>
<path d="M18.1555 16.6555C17.5061 16.6555 16.8832 16.9135 16.424 17.3727C15.9648 17.832 15.7068 18.4548 15.7068 19.1043C15.7068 19.7537 15.9648 20.3766 16.424 20.8358C16.8832 21.2951 17.5061 21.5531 18.1555 21.5531H19.3799V16.6555H18.1555Z" fill="#F99F84"/>
<path d="M26.1141 27.2077V24.1512H21.2166V27.2077C22.7895 27.8313 24.5412 27.8313 26.1141 27.2077V27.2077Z" fill="#FFAB91"/>
<path d="M18.1557 16.655C18.1557 12.9359 18.6566 9.92087 23.6655 9.92087C28.6743 9.92087 29.1752 12.9359 29.1752 16.655V20.9404C29.1752 22.4017 28.5947 23.8031 27.5615 24.8364C26.5282 25.8697 25.1268 26.4502 23.6655 26.4502C22.2042 26.4502 20.8028 25.8697 19.7695 24.8364C18.7362 23.8031 18.1557 22.4017 18.1557 20.9404V16.655Z" fill="#FFAB91"/>
<path d="M28.2677 10.762C27.2449 9.65733 24.2447 9.24189 21.9564 9.49932C21.3232 9.47857 20.6956 9.62467 20.1366 9.92296C19.779 10.0458 19.4679 10.2759 19.2458 10.5819C19.1846 10.6411 19.1228 10.6973 19.0628 10.762C17.4231 12.5329 18.1555 16.6544 18.1555 16.6544C18.2465 15.8041 18.4091 14.9629 18.6415 14.14C18.7788 13.7688 19.0395 13.4562 19.3799 13.2545C20.0269 13.0621 20.6013 12.6799 21.0286 12.1574C21.8191 12.7072 22.7181 13.0813 23.6653 13.2545C25.0884 13.4279 26.5274 13.4279 27.9506 13.2545C28.291 13.4562 28.5517 13.7688 28.689 14.14C28.9214 14.9629 29.084 15.8041 29.175 16.6544C29.175 16.6544 29.9074 12.5329 28.2677 10.762Z" fill="#212121"/>
<path d="M21.3513 33.2094L23.0532 30.5806L21.2001 27.718L19.1504 28.3945L21.3513 33.2094Z" fill="#90A4AE"/>
<path d="M28.1842 28.3873L26.1143 27.7028L24.2777 30.5814L25.9796 33.2101L28.1842 28.3873Z" fill="#90A4AE"/>
<path d="M19.9955 28.1155L16.6318 29.225L15.4083 31.5741L17.2954 33.1832L16.3911 35.5398L21.8748 41.1427C20.394 38.6987 19.6359 32.3728 19.9955 28.1155V28.1155Z" fill="#2C58D3"/>
<path d="M30.0352 33.1835L31.9224 31.5745L30.6949 29.2176L27.3342 28.1058C27.6959 32.3633 26.9379 38.6972 25.4559 41.1432L30.9396 35.5401L30.0352 33.1835Z" fill="#2C58D3"/>
</svg>
