<svg width="44" height="44" viewBox="0 0 44 44" fill="none" xmlns="http://www.w3.org/2000/svg">
<!-- <rect x="0.5" y="0.5" width="43" height="43" rx="3.5" stroke="#AEAEAE"/> -->
<path d="M24.1949 6.40769C24.2439 6.35368 24.3123 6.23594 24.3844 6.30941C24.9411 7.09436 25.3523 8.03128 25.5199 9.03885C25.6796 8.96287 25.8166 8.8401 25.9723 8.75972C26.9926 8.15311 28.0864 7.74085 29.1923 7.4096C29.228 7.39987 29.2645 7.39547 29.3015 7.38982C29.2819 8.00009 29.2236 8.60777 29.1271 9.20777C29.0122 9.95034 28.844 10.6835 28.5968 11.3808C28.5643 11.475 28.5225 11.5673 28.5092 11.6697C29.7437 11.7011 30.9474 12.1234 32.0752 12.6936L32.0867 12.7193C31.3114 13.8811 30.4737 14.9988 29.4907 15.9235C29.3696 16.0435 29.2352 16.1433 29.1181 16.2689C29.8733 17.0206 30.4043 18.0426 30.7662 19.1176C29.6416 19.68 28.4741 20.1538 27.2622 20.3679C27.3047 20.7708 27.3136 21.1777 27.2888 21.5827C27.2529 22.0018 27.185 22.4163 27.086 22.8211C27.0594 22.9152 27.0488 23.0176 27.0022 23.1036C26.3446 23.0342 25.6876 22.9331 25.0468 22.7419C24.8458 22.6861 24.6481 22.6151 24.4549 22.5294C24.4119 22.5111 24.3673 22.4989 24.3219 22.4929C24.1295 22.9497 23.8759 23.3668 23.5709 23.7281C23.4418 23.8795 23.317 24.0377 23.1701 24.1655C23.1323 24.19 23.0903 24.1655 23.0578 24.1398C22.5764 23.7696 22.0998 23.3762 21.7043 22.8816C21.6514 22.8131 21.5955 22.7478 21.5369 22.686C21.1518 23 20.7069 23.1963 20.2548 23.3284C20.2021 23.3412 20.1488 23.3495 20.0951 23.3532C19.8609 22.9052 19.6451 22.4396 19.4987 21.9403C19.4543 21.8198 19.4439 21.6816 19.383 21.5701C18.9306 21.6254 18.471 21.5497 18.0361 21.3984C17.9672 20.9303 17.9667 20.4517 17.9842 19.9786C17.9983 19.8605 17.9983 19.7384 18.0284 19.6244C18.2679 19.7142 18.5149 19.7795 18.7669 19.7651C18.9798 19.7761 19.1879 19.7362 19.3968 19.7023C19.3053 20.3152 19.2582 20.9563 19.4024 21.5636C19.908 21.5055 20.337 21.1513 20.7404 20.8175C20.8932 21.4348 21.1103 22.0421 21.448 22.5504C21.4816 22.6006 21.5319 22.6716 21.5923 22.6295C21.8424 22.4311 22.025 22.1388 22.1857 21.8427C22.3321 21.5924 22.4305 21.313 22.5426 21.043C23.0187 21.6116 23.5693 22.1105 24.1992 22.4173C24.2429 22.436 24.2885 22.4477 24.3349 22.4521C24.4675 22.0956 24.5416 21.7127 24.5534 21.3237C24.5659 20.918 24.5563 20.5098 24.4967 20.1092C25.3927 20.3648 26.3284 20.529 27.247 20.3604C27.1653 19.7343 26.8944 19.171 26.5788 18.669C26.4143 18.3961 26.2187 18.1528 26.0309 17.9029C26.5312 17.7464 27.022 17.5506 27.5001 17.3166C28.0664 17.0473 28.6026 16.6972 29.0968 16.2742C28.8115 15.9505 28.4531 15.7304 28.093 15.5449C27.5421 15.2883 26.97 15.0833 26.3824 14.986C26.3824 14.9737 26.3859 14.9495 26.3869 14.9373C26.7132 14.5674 27.0347 14.19 27.3221 13.7756C27.6835 13.2701 28.0262 12.7394 28.2859 12.152C28.3554 11.995 28.435 11.8414 28.4789 11.6706C28.1941 11.6499 27.9097 11.6797 27.6273 11.7137C27.1935 11.7692 26.7712 11.9039 26.3499 12.0367C25.9468 12.1721 25.5516 12.341 25.1633 12.5225C25.3396 11.8915 25.4658 11.2425 25.5404 10.5839C25.5731 10.2339 25.5995 9.87969 25.567 9.52772C25.5548 9.37073 25.5489 9.20903 25.5037 9.05675C25.0744 9.35032 24.6622 9.68251 24.295 10.0772C23.8354 10.5416 23.4082 11.049 23.0176 11.5943C22.9263 11.26 22.8579 10.9152 22.7265 10.5975C22.5474 10.1174 22.3313 9.61909 21.9566 9.31358C21.6985 9.75955 21.4802 10.2358 21.3051 10.7347C21.1241 11.2317 20.9764 11.7448 20.8634 12.2691C20.411 11.8436 19.8809 11.4559 19.284 11.4477C19.2116 11.8119 19.1919 12.1887 19.2025 12.563C19.2079 13.0245 19.2592 13.4829 19.3241 13.9376C18.834 13.9153 18.3153 13.9527 17.8783 14.2415C17.8251 14.2641 17.8392 14.3395 17.8467 14.3907C17.964 14.9244 18.2176 15.3989 18.4939 15.8369C18.5223 15.8931 18.6016 15.9505 18.5633 16.0234C18.1474 16.3041 17.7219 16.6243 17.4661 17.1176C17.6223 17.3226 17.794 17.5157 18.0015 17.647C18.2067 17.8008 18.4319 17.9098 18.6551 18.02C18.3624 18.4953 18.1053 19.0282 18.0287 19.6166C17.7192 19.475 17.439 19.2545 17.1771 19.0169C17.0762 18.9289 16.9922 18.8172 16.8886 18.7343C17.0005 18.1618 17.1918 17.6151 17.4549 17.1163C17.3663 16.9537 17.254 16.8108 17.1731 16.6419C16.9841 16.285 16.8253 15.9069 16.6992 15.5131C16.772 15.3852 16.8543 15.2651 16.9451 15.1543C17.1313 14.9254 17.3176 14.6915 17.5361 14.5046C17.6242 14.4286 17.7163 14.3593 17.8043 14.2848C17.803 14.1483 17.7692 14.017 17.7511 13.8833C17.6529 13.2421 17.6463 12.5875 17.6636 11.9366C17.7295 11.9098 17.794 11.8783 17.8568 11.8424C18.3019 11.5954 18.7854 11.4594 19.277 11.4427C19.4436 10.4119 19.7765 9.43321 20.127 8.47368C20.5725 8.51513 21.0076 8.67118 21.4134 8.88877C21.6082 9.00313 21.793 9.13985 21.9651 9.29694C22.19 8.9412 22.4109 8.57949 22.6621 8.24793C22.966 7.81275 23.3082 7.41808 23.6448 7.01869C23.8266 6.81398 24.0041 6.60361 24.1941 6.40926L24.1949 6.40769Z" fill="#7CD0F5"/>
<path d="M24.2979 10.0781C24.6652 9.68346 25.0774 9.35127 25.5066 9.05769C25.5519 9.20872 25.5577 9.36948 25.57 9.52867C25.6014 9.88064 25.575 10.2348 25.5434 10.5849C25.4688 11.2435 25.3426 11.8924 25.1663 12.5234C25.5559 12.3419 25.9497 12.173 26.3529 12.0377C26.7731 11.9049 27.1954 11.7702 27.6303 11.7146C27.9131 11.6807 28.1976 11.6518 28.4818 11.6716C28.4379 11.8424 28.3584 11.9956 28.2889 12.1529C28.0292 12.7413 27.6864 13.271 27.325 13.7765C27.0376 14.1897 26.7161 14.5671 26.3899 14.9382C26.3899 14.9505 26.3864 14.9747 26.3854 14.9869C26.9729 15.0842 27.5451 15.2893 28.096 15.5458C28.456 15.7314 28.8145 15.9515 29.0998 16.2752C28.6055 16.6982 28.0693 17.0482 27.5031 17.3176C27.024 17.5508 26.5323 17.7458 26.0311 17.9013C26.219 18.1525 26.4146 18.3946 26.5791 18.6674C26.8947 19.1698 27.1645 19.7327 27.2473 20.3588C26.3287 20.5284 25.393 20.3642 24.497 20.1076C24.5566 20.5083 24.5662 20.9164 24.5537 21.3221C24.5419 21.7112 24.4677 22.0941 24.3352 22.4506C24.2888 22.4461 24.2432 22.4344 24.1995 22.4157C23.5693 22.1105 23.0187 21.611 22.5426 21.043C22.4306 21.3136 22.331 21.5931 22.1852 21.8417C22.0255 22.1378 21.8419 22.4302 21.5918 22.6286C21.5314 22.6707 21.4811 22.5997 21.4475 22.5495C21.1098 22.0399 20.8927 21.4339 20.7399 20.8166C20.3365 21.1504 19.9067 21.5045 19.4019 21.5626C19.2576 20.9554 19.3047 20.3142 19.3963 19.7013C19.1874 19.7359 18.9782 19.7758 18.7664 19.7641C18.5144 19.7786 18.2663 19.7133 18.0279 19.6235V19.6166C18.1045 19.0282 18.3611 18.4953 18.6543 18.02C18.4311 17.9098 18.2059 17.8002 18.0008 17.647C17.7932 17.5157 17.6215 17.3226 17.4653 17.1176C17.7211 16.6243 18.1466 16.3041 18.5625 16.0234C18.6009 15.9505 18.5216 15.8931 18.4931 15.8369C18.2169 15.3989 17.9632 14.9244 17.8459 14.3907C17.8384 14.3395 17.8243 14.2651 17.8775 14.2415C18.3145 13.9527 18.8332 13.9153 19.3234 13.9376C19.2584 13.4829 19.2071 13.0245 19.2018 12.563C19.1919 12.1893 19.2108 11.8126 19.2861 11.4487C19.883 11.4568 20.4131 11.8446 20.8655 12.27C20.9786 11.7457 21.1263 11.2327 21.3073 10.7356C21.4826 10.2367 21.7012 9.76045 21.9595 9.31453C22.3342 9.62003 22.5503 10.1183 22.7294 10.5984C22.8601 10.9161 22.9293 11.2609 23.0206 11.5953C23.4111 11.0499 23.8383 10.5426 24.2979 10.0781ZM22.5128 12.3702C22.3751 12.5995 22.248 12.8375 22.132 13.0829C22.0125 13.2977 21.9311 13.5369 21.8259 13.7608C21.7142 13.5445 21.6311 13.3077 21.501 13.1043C21.319 12.7997 21.1154 12.5096 20.8639 12.281C20.7061 12.9774 20.6226 13.7005 20.6484 14.4221C20.6039 14.4067 20.561 14.3857 20.5204 14.3593C20.1907 14.1465 19.8292 14.0113 19.4559 13.9611C19.4137 13.953 19.3706 13.953 19.3284 13.9611C19.3801 14.1495 19.4104 14.3448 19.4668 14.5313C19.5685 14.9069 19.7067 15.2674 19.8788 15.6055C19.5332 15.6317 19.193 15.7191 18.8694 15.8645C18.7818 15.9106 18.685 15.9398 18.611 16.0152C18.8172 16.2742 19.0322 16.5295 19.2898 16.7179C19.3963 16.8049 19.5131 16.8695 19.619 16.9562C19.2544 17.2413 18.9315 17.5944 18.6629 18.0018C18.6954 18.0249 18.7303 18.0432 18.7667 18.0561C19.0019 18.1277 19.2406 18.1955 19.4852 18.2046C19.6148 18.2074 19.7446 18.2046 19.8742 18.2018C19.7992 18.4043 19.6986 18.5924 19.6334 18.8002C19.5424 19.0888 19.4359 19.3798 19.4125 19.6888C19.7464 19.6185 20.0677 19.4819 20.3628 19.2847C20.4357 19.2284 20.5118 19.1781 20.5906 19.1343C20.5789 19.5425 20.5808 19.9535 20.6537 20.3538C20.6803 20.4992 20.6925 20.6511 20.7455 20.788C20.8503 20.6871 20.9496 20.5785 21.043 20.4631C21.2825 20.1971 21.4654 19.8693 21.6301 19.5359C21.6974 19.615 21.7246 19.7258 21.7714 19.821C21.9675 20.2501 22.214 20.6445 22.5035 20.9924C22.5423 21.0411 22.5679 20.9588 22.5788 20.9249C22.7339 20.3959 22.8449 19.8392 22.8292 19.2762L22.858 19.2423C23.3516 19.6357 23.9089 19.9073 24.4813 20.0966C24.4882 19.9541 24.448 19.8178 24.4214 19.6812C24.3506 19.3277 24.2351 18.9905 24.1053 18.6605C24.0395 18.4953 23.9482 18.3465 23.8846 18.1804C24.5965 18.2347 25.3108 18.1132 26.0008 17.9104C25.9935 17.8795 25.9785 17.8519 25.9577 17.8313C25.5112 17.321 24.9872 16.8975 24.4078 16.6278C24.4246 16.5706 24.4752 16.5515 24.5143 16.5239C25.084 16.1813 25.6088 15.7411 26.0892 15.245C26.1788 15.1596 26.2773 15.0833 26.346 14.9722C25.8276 14.8732 25.301 14.8475 24.7775 14.8955C24.5579 14.9043 24.3429 14.9646 24.1241 14.9822C24.1681 14.884 24.219 14.7904 24.2764 14.7024C24.4131 14.467 24.5347 14.2198 24.6401 13.963C24.7849 13.6542 24.9118 13.3341 25.0199 13.0051C25.0622 12.8481 25.1322 12.7018 25.1484 12.5372C24.8438 12.6892 24.5459 12.8594 24.2559 13.0471C23.8649 13.3112 23.4791 13.5919 23.1382 13.942C23.127 13.8164 23.1446 13.6939 23.156 13.5709C23.1903 12.9819 23.1555 12.3903 23.0528 11.8126C23.0468 11.7452 23.0294 11.68 23.0017 11.6207C22.8252 11.8587 22.6775 12.1231 22.5115 12.3711L22.5128 12.3702Z" fill="#02AAE8"/>
<path d="M22.5128 12.3699C22.6788 12.1218 22.8265 11.8575 23.003 11.6195C23.0307 11.6787 23.0481 11.744 23.0541 11.8113C23.1569 12.389 23.1916 12.9807 23.1573 13.5696C23.1459 13.6927 23.1283 13.8164 23.1395 13.9407C23.4799 13.5906 23.8657 13.3099 24.2572 13.0459C24.5472 12.8581 24.8451 12.6879 25.1497 12.536C25.1335 12.7005 25.0635 12.8478 25.0212 13.0038C24.9133 13.3334 24.7866 13.654 24.642 13.9633C24.5365 14.2202 24.4149 14.4673 24.2782 14.7028C24.2208 14.7907 24.1699 14.8843 24.126 14.9825C24.3447 14.9649 24.5598 14.9046 24.7793 14.8959C25.3029 14.8478 25.8294 14.8736 26.3478 14.9725C26.2791 15.0836 26.1807 15.1609 26.091 15.2453C25.612 15.7414 25.0859 16.1816 24.5161 16.5242C24.4757 16.5518 24.4251 16.5709 24.4097 16.6281C24.989 16.8978 25.513 17.3214 25.9595 17.8316C25.9803 17.8523 25.9953 17.8798 26.0027 17.9107C25.3126 18.1135 24.5983 18.235 23.8865 18.1807C23.9501 18.3465 24.0414 18.4947 24.1071 18.6608C24.2362 18.9899 24.3525 19.328 24.4232 19.6816C24.4498 19.8181 24.49 19.9544 24.4831 20.097C23.911 19.9086 23.3537 19.636 22.8598 19.2426L22.8311 19.2765C22.8476 19.8395 22.7358 20.3962 22.5806 20.9252C22.5697 20.9591 22.5442 21.0414 22.5053 20.9927C22.2158 20.6448 21.9694 20.2504 21.7732 19.8213C21.7264 19.7271 21.6993 19.6153 21.6319 19.5362C21.4672 19.8696 21.2844 20.1974 21.0449 20.4634C20.9515 20.5788 20.8521 20.6874 20.7473 20.7883C20.6941 20.6514 20.6827 20.4995 20.6555 20.3541C20.5826 19.9538 20.5808 19.5418 20.5925 19.1346C20.513 19.1782 20.4363 19.2284 20.3628 19.2847C20.0673 19.4818 19.7455 19.6182 19.4112 19.6882C19.4346 19.3792 19.541 19.0881 19.632 18.7996C19.6972 18.5917 19.7978 18.4037 19.8729 18.2011C19.7433 18.2027 19.6134 18.2068 19.4838 18.204C19.2401 18.1949 19.0013 18.127 18.7653 18.0554C18.7289 18.0426 18.694 18.0243 18.6615 18.0011C18.9301 17.5939 19.2531 17.2409 19.6177 16.9559C19.5112 16.8692 19.3944 16.8045 19.2885 16.7176C19.0309 16.5292 18.8159 16.2739 18.6096 16.0149C18.6836 15.9395 18.7805 15.9103 18.868 15.8642C19.1916 15.7187 19.5319 15.6314 19.8774 15.6051C19.7054 15.2671 19.5671 14.9066 19.4655 14.531C19.409 14.3445 19.3787 14.1492 19.3271 13.9608C19.3693 13.9527 19.4123 13.9527 19.4545 13.9608C19.8279 14.0109 20.1894 14.1461 20.519 14.3589C20.5596 14.3854 20.6025 14.4064 20.647 14.4217C20.6204 13.6996 20.7048 12.9774 20.8626 12.2807C21.1141 12.5093 21.3176 12.7994 21.4997 13.104C21.6298 13.3074 21.7126 13.5435 21.8246 13.7605C21.9297 13.5366 22.0109 13.2974 22.1306 13.0826C22.2466 12.8371 22.3738 12.5992 22.5114 12.3699H22.5128ZM21.8227 13.8195C21.6284 14.3204 21.5061 14.8559 21.4608 15.4042C21.2974 15.1147 21.1045 14.8459 20.8671 14.6371C20.7998 14.5822 20.7407 14.5071 20.6601 14.4801C20.6741 14.8867 20.745 15.2878 20.87 15.667C20.8876 15.7318 20.9136 15.793 20.9469 15.8485L20.8833 15.8356C20.5739 15.6771 20.2381 15.6038 19.9011 15.6212C20.0839 15.9628 20.3197 16.2742 20.6124 16.4884C20.6154 16.4994 20.6212 16.5198 20.6244 16.5314C20.275 16.5822 19.9415 16.7405 19.643 16.9568C19.9538 17.1198 20.2888 17.2331 20.6313 17.229C20.6183 17.2485 20.604 17.2667 20.5885 17.2834C20.3167 17.5331 20.0848 17.8381 19.9038 18.1839C20.2588 18.1559 20.6026 18.0162 20.915 17.8171C20.7396 18.2123 20.6357 18.6462 20.61 19.0913C20.9226 18.8473 21.1879 18.528 21.3884 18.1544C21.3999 18.6068 21.4833 19.0526 21.6343 19.4687L21.6663 19.4467C21.8328 19.0385 21.959 18.6024 21.9856 18.1484C22.1986 18.5621 22.4841 18.9174 22.8228 19.1905C22.8201 18.7053 22.7281 18.2265 22.5532 17.7873C22.96 18.0126 23.4002 18.1418 23.849 18.1675C23.6109 17.7345 23.2924 17.3712 22.9175 17.105C23.4072 17.056 23.8828 16.8739 24.3242 16.6246L24.3285 16.5976C23.8936 16.3953 23.4286 16.2984 22.9612 16.3125C23.4024 15.9703 23.7635 15.5065 24.0871 15.0196C23.6799 15.1023 23.2856 15.2572 22.9175 15.4789C22.8279 15.5273 22.7488 15.6001 22.6551 15.6359C22.8924 15.1227 23.045 14.561 23.1049 13.9806C22.7105 14.358 22.3713 14.8092 22.1008 15.3163C22.0873 14.8029 22.0072 14.2867 21.8246 13.818L21.8227 13.8195Z" fill="#006FB8"/>
<path d="M11.9838 26.1741C12.2656 26.0137 12.5427 25.8435 12.8242 25.6815C12.8263 26.7726 12.8242 27.8633 12.8242 28.9544C12.8242 29.1161 12.8154 29.2854 12.8703 29.4376C12.9065 29.5504 12.9655 29.6509 13.0423 29.7304C13.1191 29.81 13.2112 29.8661 13.3107 29.8938C13.424 29.9252 13.5411 29.9083 13.6566 29.9117C13.7974 29.9095 13.9456 29.9309 14.0779 29.8596C14.1734 29.8132 14.2418 29.7183 14.3134 29.6345C14.6562 29.2012 14.9886 28.7553 15.3324 28.3246C15.4778 28.1289 15.6745 27.9963 15.8912 27.9478C16.1446 27.8982 16.4022 28.0228 16.594 28.2134C16.6934 28.3181 16.7896 28.4268 16.8825 28.5396C17.0015 28.6797 17.1327 28.8072 17.2349 28.9657C17.3921 29.2113 17.475 29.512 17.4701 29.8197C17.4653 30.1274 17.373 30.4243 17.2081 30.6628C17.0433 30.9013 16.8153 31.0676 16.5608 31.1351C16.3063 31.2025 16.04 31.1672 15.8045 31.0349C15.5687 30.9127 15.4077 30.6669 15.2259 30.4622C15.1549 30.3771 15.0828 30.2939 15.0112 30.211C14.9518 30.2832 14.8949 30.3585 14.8393 30.4348C14.7103 30.6005 14.5514 30.7299 14.3743 30.8133C14.1972 30.8968 14.0065 30.9321 13.8163 30.9168C13.4743 30.8973 13.1159 30.9771 12.7896 30.8198C12.3191 30.6151 11.9801 30.0512 11.9785 29.4577C11.983 28.3632 11.9721 27.2683 11.9838 26.1738V26.1741ZM15.928 29.096C15.8194 29.1428 15.7582 29.2693 15.6767 29.3588C15.6523 29.4009 15.5884 29.4367 15.6102 29.4967C15.7699 29.6901 15.9338 29.8775 16.0937 30.07C16.2284 30.2176 16.4679 30.184 16.5645 29.9978C16.6021 29.9329 16.6206 29.8552 16.6171 29.7767C16.6137 29.6982 16.5884 29.6232 16.5453 29.5632C16.4626 29.4521 16.3681 29.3538 16.2819 29.2464C16.1957 29.139 16.0594 29.0455 15.928 29.096ZM17.8807 26.182C18.1663 26.0209 18.4436 25.8391 18.7323 25.6887C18.7312 26.8506 18.7312 28.0124 18.7323 29.1739C18.7288 29.5519 19.0027 29.9011 19.325 29.9117C20.8847 29.9117 22.4447 29.9139 24.0044 29.9102C24.0126 30.2458 24.011 30.5824 24.0044 30.9184C22.3643 30.914 20.7239 30.9184 19.0836 30.9162C18.6072 30.8976 18.1586 30.5243 17.9803 30.0034C17.913 29.8105 17.8792 29.6036 17.881 29.3949C17.881 28.3243 17.881 27.2535 17.881 26.1826L17.8807 26.182ZM30.1184 26.1826C30.4035 26.0212 30.6823 25.8435 30.97 25.6881C30.9655 26.8404 30.97 27.993 30.9682 29.1453C30.9638 29.3057 31.0032 29.4635 31.0806 29.5954C31.1581 29.7273 31.2694 29.8263 31.3982 29.8778C31.5116 29.9284 31.6345 29.9121 31.7532 29.9136C32.476 29.9136 33.1988 29.9136 33.9215 29.9136C33.9237 30.2483 33.9215 30.5834 33.9215 30.9184C33.1538 30.9168 32.386 30.9184 31.6183 30.9184C31.4392 30.9159 31.2572 30.9347 31.0823 30.8785C30.796 30.8038 30.5501 30.5915 30.3654 30.3293C30.1365 30.5491 29.8816 30.7435 29.5937 30.8339C29.2852 30.9507 28.9584 30.9124 28.6402 30.9184C27.3759 30.9184 26.1116 30.9184 24.8472 30.9184C24.8472 30.5834 24.8472 30.2483 24.8472 29.9136C26.2704 29.9124 27.6936 29.9124 29.1168 29.9136C29.2565 29.9105 29.3939 29.8713 29.5194 29.7988C29.6448 29.7263 29.7553 29.6222 29.843 29.4938C30.0351 29.2232 30.1017 28.8608 30.1155 28.5161C30.1176 27.7384 30.1126 26.9603 30.1182 26.1826H30.1184ZM34.3367 26.1788C34.6201 26.0181 34.9014 25.8513 35.1813 25.6824C35.1944 26.8576 35.1813 28.0335 35.1877 29.2091C35.1946 29.5736 35.4621 29.8998 35.7716 29.913C36.4188 29.913 37.0663 29.913 37.7143 29.913V30.9177C36.9952 30.9177 36.2767 30.9177 35.5587 30.9177C35.0467 30.9096 34.5679 30.4857 34.4067 29.9149C34.3103 29.6072 34.3391 29.2753 34.3351 28.9544C34.3375 28.0288 34.3303 27.1019 34.3385 26.1776L34.3367 26.1788ZM10.5034 26.8777C10.785 26.7088 11.0649 26.5364 11.3494 26.3754C11.3467 27.1729 11.3494 27.9707 11.3494 28.7682C11.332 29.2979 11.1558 29.8032 10.8522 30.194C10.5486 30.5847 10.1372 30.8357 9.69147 30.902C9.55069 30.9237 9.40885 30.9155 9.26754 30.9165H7.85525C7.62879 30.9127 7.39647 30.9416 7.17772 30.8537C6.69498 30.6876 6.33013 30.1538 6.28516 29.5642V27.4206C6.56937 27.2617 6.84746 27.0878 7.13061 26.9267C7.13061 27.6753 7.12822 28.4238 7.13061 29.1723C7.12822 29.5519 7.39939 29.9004 7.7222 29.9117C8.25443 29.9117 8.78667 29.9117 9.3189 29.9117C9.4352 29.9117 9.55282 29.9199 9.66699 29.8876C9.84413 29.8424 10.0084 29.7442 10.1441 29.6023C10.2797 29.4605 10.3821 29.2799 10.4414 29.0778C10.4983 28.8979 10.505 28.7035 10.5029 28.5126C10.5029 27.9674 10.5029 27.4221 10.5029 26.8768L10.5034 26.8777ZM27.391 26.7575C27.56 26.6633 27.7215 26.549 27.8966 26.4702C27.8966 26.6639 27.8937 26.8576 27.898 27.0514C27.7287 27.1503 27.5624 27.2558 27.3899 27.3459C27.5443 27.3459 27.7181 27.3497 27.8391 27.4806C28.0624 27.7079 28.0198 28.1883 27.7593 28.3563C27.5243 28.4976 27.2883 28.6389 27.048 28.7645C27.048 28.5698 27.048 28.3751 27.048 28.1808C27.2183 28.0894 27.3793 27.9742 27.5536 27.8938C27.4046 27.8888 27.2372 27.8872 27.1182 27.7651C26.9053 27.5767 26.9053 27.1547 27.1031 26.9522C27.1794 26.8542 27.2939 26.8225 27.3886 26.7562L27.391 26.7575ZM8.74888 26.9575C8.77336 26.9182 8.81647 26.9305 8.85213 26.9261C9.04347 27.15 9.23348 27.3757 9.42429 27.6005C9.46979 27.6489 9.4509 27.733 9.40832 27.7748C9.24315 27.9678 9.07869 28.1618 8.91494 28.3569C8.8854 28.3917 8.84993 28.4187 8.81088 28.436C8.77243 28.4161 8.73764 28.3875 8.70843 28.3519C8.54556 28.1563 8.38004 27.9641 8.21611 27.7698C8.20459 27.7588 8.19526 27.7449 8.18878 27.7292C8.18231 27.7135 8.17884 27.6963 8.17864 27.6788C8.17844 27.6613 8.1815 27.644 8.18761 27.6281C8.19371 27.6122 8.20272 27.5981 8.21398 27.5867C8.39201 27.3763 8.56952 27.1653 8.74888 26.9565V26.9575ZM32.5888 26.9565C32.612 26.9176 32.6538 26.9299 32.6886 26.9251C32.8792 27.1449 33.0665 27.3647 33.2525 27.5886C33.3015 27.6354 33.2922 27.723 33.248 27.7694C33.0721 27.9801 32.8962 28.1908 32.7158 28.3955L32.6551 28.4332C32.5737 28.4081 32.5266 28.3233 32.4688 28.2586C32.3312 28.0969 32.1944 27.934 32.0561 27.7732C32.0129 27.7315 31.994 27.6457 32.0414 27.5986C32.2256 27.3867 32.4049 27.1688 32.5886 26.9562L32.5888 26.9565ZM36.1883 31.6678C36.2243 31.6644 36.2682 31.6515 36.2972 31.6867C36.4358 31.8374 36.5633 32.0007 36.7001 32.1561C36.756 32.2277 36.8225 32.2889 36.8675 32.3718C36.8743 32.3949 36.8749 32.42 36.8692 32.4436C36.8635 32.4671 36.8517 32.488 36.8355 32.5034C36.6548 32.7081 36.4819 32.9219 36.3033 33.1279C36.2951 33.1388 36.285 33.1476 36.2737 33.1536C36.2624 33.1596 36.2501 33.1627 36.2377 33.1627C36.2253 33.1627 36.213 33.1596 36.2017 33.1536C36.1904 33.1476 36.1803 33.1388 36.1721 33.1279C35.9947 32.9185 35.8173 32.7092 35.6399 32.4999C35.6291 32.4906 35.6202 32.4787 35.6137 32.4649C35.6073 32.4511 35.6035 32.4358 35.6026 32.4201C35.6017 32.4044 35.6037 32.3887 35.6085 32.374C35.6132 32.3593 35.6207 32.346 35.6303 32.3351C35.8136 32.109 36.0058 31.893 36.1913 31.6691L36.1883 31.6678ZM9.1752 34.6488C9.23449 34.4395 9.346 34.2563 9.49512 34.1231C9.64424 33.9899 9.824 33.913 10.0108 33.9025C10.4121 33.8959 10.8134 33.9025 11.2147 33.8996C11.0633 34.0902 10.9031 34.2708 10.7474 34.4563C10.5103 34.4563 10.2735 34.4563 10.0364 34.4563C9.86125 34.4563 9.69972 34.5992 9.63292 34.7869C9.59367 34.8994 9.58776 35.0242 9.61616 35.1411C9.64457 35.258 9.70562 35.3601 9.7894 35.4309C9.9685 35.5879 10.2037 35.5157 10.41 35.5311C10.7102 35.5075 11.0247 35.6334 11.219 35.9123C11.4878 36.2711 11.5162 36.8445 11.2837 37.2373C11.2088 37.3685 11.1107 37.4792 10.9963 37.5617C10.8819 37.6443 10.7537 37.6967 10.6205 37.7155H9.35829C9.35829 37.5315 9.35829 37.3478 9.35829 37.1644C9.7439 37.1682 10.13 37.1644 10.5146 37.1663C10.7424 37.1726 10.9515 36.9465 10.9694 36.6803C11.0005 36.3977 10.8065 36.1151 10.5657 36.0931C10.3626 36.0821 10.1588 36.1022 9.95599 36.0818C9.72548 36.055 9.51227 35.9256 9.35962 35.7201C9.14034 35.4375 9.07141 35.0118 9.17334 34.6497L9.1752 34.6488ZM32.4515 36.7421C32.4515 35.7964 32.4496 34.8507 32.4515 33.9053C32.6112 33.9081 32.7708 33.9075 32.9305 33.9053C32.9305 34.663 32.9305 35.4207 32.9305 36.1782C33.343 35.6901 33.7562 35.2027 34.1701 34.716C34.3899 34.716 34.6097 34.7122 34.8295 34.716C34.4208 35.2146 33.9945 35.6931 33.5878 36.1936C34.0195 36.696 34.4474 37.2062 34.8772 37.7126H34.2119C33.7837 37.2103 33.3603 36.7044 32.9305 36.2055C32.9305 36.7079 32.9305 37.2103 32.9305 37.7126H32.4574C32.4443 37.3889 32.4555 37.0643 32.4518 36.7393L32.4515 36.7421ZM24.3107 37.7126C24.3062 36.4642 24.3062 35.2156 24.3107 33.9668C24.6979 33.9703 25.0851 33.9668 25.4723 33.9684C25.6129 33.9726 25.7507 34.0158 25.8745 34.0946C25.9984 34.1734 26.1047 34.2855 26.1849 34.4218C26.4207 34.8014 26.4005 35.3637 26.1448 35.7229C26.3119 35.8614 26.4599 36.0473 26.5237 36.2802C26.5701 36.4329 26.5867 36.596 26.5722 36.7572C26.5577 36.9185 26.5125 37.0738 26.4399 37.2116C26.3674 37.3493 26.2694 37.4659 26.1532 37.5527C26.0371 37.6395 25.9058 37.6941 25.7693 37.7126H24.3109H24.3107ZM24.7671 34.5128C24.7687 34.8643 24.7687 35.2156 24.7671 35.5669C25.0023 35.5716 25.2381 35.5703 25.4736 35.5669C25.7179 35.5518 25.9199 35.2677 25.888 34.9813C25.8745 34.8538 25.8227 34.7363 25.7422 34.6499C25.6616 34.5635 25.5574 34.514 25.4486 34.5103C25.2213 34.5103 24.9943 34.5103 24.7673 34.5103L24.7671 34.5128ZM24.7673 36.1116C24.7692 36.4636 24.7673 36.8156 24.7673 37.1676C25.0736 37.1676 25.3794 37.1676 25.6862 37.1676C25.7876 37.1625 25.8845 37.1172 25.9612 37.039C26.038 36.9608 26.0901 36.8543 26.1091 36.7368C26.1647 36.4341 25.9494 36.1154 25.6868 36.1116C25.3799 36.1076 25.0747 36.1094 24.7668 36.1116H24.7673ZM12.4721 34.7125C12.7699 34.71 13.0674 34.7125 13.3652 34.7125C13.5457 34.7094 13.7322 34.7753 13.8653 34.9232C13.9398 35.0016 13.999 35.0982 14.0388 35.2062C14.0786 35.3142 14.098 35.4312 14.0957 35.549C14.0957 36.2711 14.0957 36.9933 14.0957 37.7155H12.5014C12.2883 37.6857 12.0936 37.5582 11.9596 37.3603C11.714 37.0131 11.7259 36.4539 11.9902 36.1248C12.0654 36.0241 12.1581 35.9436 12.2619 35.8888C12.3658 35.834 12.4784 35.8061 12.5922 35.8071C12.9381 35.8071 13.2841 35.8049 13.63 35.809C13.63 35.7044 13.6345 35.5951 13.5938 35.4994C13.5666 35.431 13.5233 35.3734 13.4691 35.3333C13.4149 35.2932 13.352 35.2724 13.2881 35.2733C12.8623 35.2733 12.4365 35.2733 12.0107 35.2733C12.1581 35.0799 12.3218 34.9056 12.4732 34.7169L12.4721 34.7125ZM12.4852 36.381C12.4163 36.4094 12.3568 36.4628 12.3151 36.5335C12.2735 36.6042 12.2519 36.6887 12.2534 36.7748C12.2534 36.9832 12.4131 37.1732 12.5922 37.1663C12.9381 37.1663 13.2841 37.1685 13.63 37.1644C13.6314 36.8944 13.6332 36.6244 13.63 36.3547C13.3373 36.3612 13.0467 36.3547 12.755 36.3578C12.6653 36.3597 12.5733 36.3481 12.4868 36.381H12.4852ZM15.012 34.7169C15.6882 34.7154 16.3644 34.7169 17.0406 34.7169C17.1593 34.7169 17.2822 34.732 17.3895 34.7976C17.5046 34.8629 17.6022 34.9645 17.6713 35.0912C17.7405 35.2179 17.7786 35.3647 17.7815 35.5154C17.7815 36.2485 17.7815 36.9814 17.7815 37.7133H17.3158C17.3158 37.0853 17.3158 36.4573 17.3158 35.8294C17.3158 35.7144 17.3248 35.5914 17.274 35.4878C17.2173 35.3647 17.1047 35.2698 16.9831 35.2733C16.7886 35.2733 16.594 35.2733 16.3995 35.2733C16.3966 36.0871 16.3995 36.901 16.3982 37.7148H15.9317C15.9317 36.9013 15.9317 36.0881 15.9317 35.2749C15.6262 35.2727 15.3196 35.2749 15.0152 35.2749C15.013 36.0887 15.0152 36.9026 15.0152 37.7164H14.5481C14.5481 36.8977 14.5481 36.0791 14.5481 35.2604C14.7014 35.0794 14.8551 34.8986 15.009 34.7182L15.012 34.7169ZM18.8587 34.7182C19.1653 34.7163 19.4718 34.7163 19.7782 34.7182C19.9471 34.7136 20.1119 34.7804 20.2428 34.9066C20.4123 35.0673 20.5004 35.3261 20.4959 35.5801C20.498 36.2919 20.4959 37.0037 20.4959 37.7151H18.9082C18.5277 37.679 18.2057 37.2875 18.182 36.8388C18.137 36.3305 18.4933 35.8341 18.9271 35.8099C19.2928 35.8046 19.6587 35.8099 20.0243 35.808C20.0243 35.7016 20.0323 35.5882 19.9855 35.4918C19.9566 35.424 19.9119 35.3674 19.8565 35.3288C19.8012 35.2902 19.7376 35.2711 19.6733 35.2739C19.2519 35.2739 18.8307 35.2739 18.4095 35.2739C18.5508 35.0793 18.7089 34.9031 18.8584 34.7176L18.8587 34.7182ZM18.6573 36.6825C18.6059 36.9151 18.7783 37.1657 18.9801 37.165C19.3281 37.165 19.6762 37.1691 20.0243 37.1628C20.0227 36.8941 20.0243 36.6253 20.0243 36.3565C19.6845 36.3584 19.3449 36.3565 19.0056 36.3565C18.8438 36.3518 18.6863 36.4912 18.6575 36.6815L18.6573 36.6825ZM21.4111 34.715C21.7355 34.715 22.0599 34.715 22.3842 34.715C22.5407 34.715 22.7036 34.7072 22.8497 34.7873C23.0871 34.9129 23.2598 35.2058 23.2569 35.5157C23.2569 36.2483 23.2569 36.9809 23.2569 37.7136H22.7919C22.7919 37.0338 22.7919 36.3537 22.7919 35.6727C22.7935 35.4673 22.6426 35.2727 22.4665 35.272C22.1157 35.2702 21.7647 35.272 21.414 35.272C21.4164 36.0856 21.414 36.8994 21.414 37.7129H20.9456C20.9509 36.8966 20.9382 36.0802 20.9517 35.267C21.0944 35.072 21.2604 34.9009 21.4108 34.7138L21.4111 34.715ZM27.5871 34.7433C27.6164 34.7003 27.667 34.7188 27.7071 34.7138C27.9999 34.7176 28.2926 34.7078 28.5853 34.7185C28.9332 34.7364 29.2291 35.1069 29.2309 35.516C29.2309 36.2486 29.2309 36.9813 29.2309 37.7139H27.6385C27.504 37.6961 27.3754 37.6389 27.2644 37.5476C27.1534 37.4562 27.0636 37.3336 27.003 37.1908C26.8803 36.9007 26.8894 36.533 27.0395 36.2589C27.1122 36.119 27.2144 36.0037 27.3362 35.9244C27.458 35.8451 27.5952 35.8044 27.7343 35.8064C28.0776 35.809 28.4209 35.8036 28.7639 35.8093C28.77 35.6783 28.7639 35.5367 28.6929 35.4287C28.6279 35.3377 28.5313 35.2689 28.4267 35.2736C27.9977 35.2736 27.5688 35.2755 27.14 35.2717C27.2891 35.0962 27.437 34.9194 27.5863 34.7449L27.5871 34.7433ZM27.3883 36.7735C27.3835 36.9876 27.5541 37.1742 27.7343 37.1641C28.0778 37.1641 28.4217 37.1666 28.7652 37.1622C28.7628 36.8922 28.7708 36.6222 28.7612 36.3525C28.4105 36.3609 28.0595 36.3525 27.7087 36.3578C27.5318 36.3672 27.3758 36.5628 27.3894 36.7735H27.3883ZM30.1424 34.7157C30.5203 34.7142 30.8981 34.7142 31.2758 34.7157C31.3702 34.7118 31.4642 34.7306 31.5523 34.7709C31.6403 34.8112 31.7205 34.8721 31.788 34.95C31.8555 35.0279 31.9089 35.1212 31.945 35.2241C31.9811 35.3271 31.9992 35.4376 31.998 35.549C31.9999 36.2711 31.998 36.9933 31.998 37.7155H31.5265V35.6746C31.5268 35.5699 31.4924 35.4693 31.4304 35.3943C31.3685 35.3194 31.2841 35.2762 31.1954 35.2739C30.846 35.2739 30.4969 35.2739 30.1475 35.2739C30.1498 36.0875 30.1475 36.9013 30.1475 37.7148H29.6871C29.677 36.895 29.6823 36.0746 29.6844 35.2545C29.8382 35.0776 29.9902 34.8984 30.1403 34.7169L30.1424 34.7157Z" fill="#024B8F"/>
</svg>
